<?xml version="1.0" standalone="no"?>
<!DOCTYPE svg PUBLIC "-//W3C//DTD SVG 20010904//EN"
 "http://www.w3.org/TR/2001/REC-SVG-20010904/DTD/svg10.dtd">
<svg version="1.0" xmlns="http://www.w3.org/2000/svg"
 width="100.000000pt" height="105.000000pt" viewBox="0 0 100.000000 105.000000"
 preserveAspectRatio="xMidYMid meet">
<metadata>
Created by potrace 1.16, written by Peter Selinger 2001-2019
</metadata>
<g transform="translate(0.000000,105.000000) scale(0.100000,-0.100000)"
fill="#000000" stroke="none">
<path d="M288 975 c-15 -13 -25 -30 -22 -38 7 -20 -25 -45 -35 -28 -6 9 -10 6
-14 -11 -3 -12 -10 -41 -16 -63 -9 -37 -3 -123 15 -221 5 -26 2 -32 -15 -37
-18 -4 -21 -13 -21 -63 0 -36 7 -73 19 -98 11 -23 27 -70 36 -106 9 -35 23
-76 31 -92 8 -15 14 -36 14 -48 0 -27 17 -57 60 -102 l34 -38 126 0 126 0 41
43 c39 41 104 162 119 222 4 17 22 60 40 97 37 73 43 104 20 95 -17 -7 -28 16
-20 38 7 18 16 19 33 3 11 -11 11 -9 2 10 -7 13 -21 22 -35 22 l-23 0 13 75
c12 67 12 92 5 190 -2 26 -3 27 -11 10 l-9 -20 0 20 c-1 11 -16 38 -35 60 -32
38 -36 39 -90 39 -48 -1 -56 1 -56 17 0 11 -4 19 -10 19 -5 0 -10 -4 -10 -10
0 -5 -15 -1 -32 10 -39 24 -54 25 -92 5 -31 -17 -56 -19 -56 -7 0 9 -67 32
-91 32 -8 0 -26 -11 -41 -25z m140 -312 c2 -9 -8 -13 -33 -13 -33 0 -36 2 -25
15 15 18 51 16 58 -2z m-152 -42 c-2 -21 -9 -47 -15 -58 -15 -29 4 -92 32
-102 12 -5 31 -18 41 -30 16 -17 17 -24 7 -34 -10 -9 -17 -6 -33 16 -22 31
-38 28 -38 -8 0 -13 -3 -30 -6 -39 -5 -14 -8 -14 -22 0 -18 18 -18 58 -1 202
8 65 15 92 25 92 10 0 13 -11 10 -39z m-69 -93 c-3 -7 -5 -2 -5 12 0 14 2 19
5 13 2 -7 2 -19 0 -25z m303 -53 c0 -8 -4 -17 -10 -20 -6 -4 -10 5 -10 20 0
15 4 24 10 20 6 -3 10 -12 10 -20z m-2 -73 c2 -7 -6 -12 -17 -12 -21 0 -27 11
-14 24 9 9 26 2 31 -12z"/>
</g>
</svg>
